{"title":"Hot Tub Time Machine 2 (2015) UNRATED 1080p x264 [CBRG]","uid":11809116,"size":1490069024,"categoryP":"video","categoryS":"hd___movies","magnet":"?xt=urn:btih:152766a29964d3657883f8005654b405c1ec7831&amp;dn=Hot+Tub+Time+Machine+2+%282015%29+UNRATED+1080p+x264+%5BCBRG%5D&amp;tr=udp%3A%2F%2Ftracker.openbittorrent.com%3A80&amp;tr=udp%3A%2F%2Fopen.demonii.com%3A1337&amp;tr=udp%3A%2F%2Ftracker.coppersurfer.tk%3A6969&amp;tr=udp%3A%2F%2Fexodus.desync.com%3A6969","seeders":37,"leechers":5,"uploader":"HeartbleedTorrents","files":1,"time":1428716602,"description":"[img]http://is4.mzstatic.com/image/pf/us/r30/Video5/v4/77/89/c1/7789c1b5-fa49-2533-999c-7c561fbd9994/mza_8947274464199137992.jpg[/img]\n\n[b]Hot.Tub.Time.Machine.2.2015.UNRATED.1080p.x264-CBRG.mp4[/b]\n\nGeneral\nFormat : MPEG-4\nFormat profile : Base Media / Version 2\nCodec ID : mp42\nFile size : 1.39 GiB\nDuration : 1h 39mn\nOverall bit rate mode : Variable\nOverall bit rate : 2 002 Kbps\nContentType : Movie\nTagged date : UTC 2015-04-10 23:02:17\nWriting application : HandBrake 0.10.0 2014112200\nCover : Yes\n\nVideo\nID : 1\nFormat : AVC\nFormat/Info : Advanced Video Codec\nFormat profile : &lt;a class=&quot;__cf_email__&quot; href=&quot;/cdn-cgi/l/email-protection&quot; data-cfemail=&quot;377a565e59777b031907&quot;&gt;[email&amp;#160;protected]&lt;/a&gt;&lt;script cf-hash='f9e31' type=&quot;text/javascript&quot;&gt;\n/* &lt;![CDATA[ */!function(){try{var t=&quot;currentScript&quot;in document?document.currentScript:function(){for(var t=document.getElementsByTagName(&quot;script&quot;),e=t.length;e--;)if(t[e].getAttribute(&quot;cf-hash&quot;))return t[e]}();if(t&amp;&amp;t.previousSibling){var e,r,n,i,c=t.previousSibling,a=c.getAttribute(&quot;data-cfemail&quot;);if(a){for(e=&quot;&quot;,r=parseInt(a.substr(0,2),16),n=2;a.length-n;n+=2)i=parseInt(a.substr(n,2),16)^r,e+=String.fromCharCode(i);e=document.createTextNode(e),c.parentNode.replaceChild(e,c)}}}catch(u){}}();/* ]]&gt; */&lt;/script&gt;\nFormat settings, CABAC : Yes\nFormat settings, ReFrames : 4 frames\nCodec ID : avc1\nCodec ID/Info : Advanced Video Coding\nDuration : 1h 39mn\nBit rate : 1 850 Kbps\nWidth : 1 916 pixels\nHeight : 1 032 pixels\nDisplay aspect ratio : 1.85:1\nFrame rate mode : Variable\nFrame rate : 23.976 fps\nMinimum frame rate : 23.810 fps\nMaximum frame rate : 24.390 fps\nColor space : YUV\nChroma subsampling : 4:2:0\nBit depth : 8 bits\nScan type : Progressive\nBits/(Pixel*Frame) : 0.039\nStream size : 1.27 GiB (91%)\nWriting library : x264 core 142 r2479 dd79a61\nEncoding settings : cabac=1 / ref=1 / deblock=1:0:0 / analyse=0x1:0x111 / me=hex / subme=2 / psy=1 / psy_rd=1.00:0.00 / mixed_ref=0 / me_range=16 / chroma_me=1 / trellis=0 / 8x8dct=0 / cqm=0 / deadzone=21,11 / fast_pskip=1 / chroma_qp_offset=0 / threads=6 / lookahead_threads=2 / sliced_threads=0 / nr=0 / decimate=1 / interlaced=0 / bluray_compat=0 / constrained_intra=0 / bframes=3 / b_pyramid=2 / b_adapt=1 / b_bias=0 / direct=1 / weightb=1 / open_gop=0 / weightp=1 / keyint=240 / keyint_min=24 / scenecut=40 / intra_refresh=0 / rc_lookahead=10 / rc=abr / mbtree=1 / bitrate=1850 / ratetol=1.0 / qcomp=0.60 / qpmin=0 / qpmax=69 / qpstep=4 / vbv_maxrate=20000 / vbv_bufsize=25000 / nal_hrd=none / filler=0 / ip_ratio=1.40 / aq=1:1.00\nColor primaries : BT.709\nTransfer characteristics : BT.709\nMatrix coefficients : BT.709\nColor range : Limited\n\nAudio\nID : 2\nFormat : AAC\nFormat/Info : Advanced Audio Codec\nFormat profile : LC\nCodec ID : 40\nDuration : 1h 39mn\nBit rate mode : Variable\nBit rate : 162 Kbps\nChannel(s) : 2 channels\nChannel positions : Front: L R\nSampling rate : 48.0 KHz\nCompression mode : Lossy\nStream size : 115 MiB (8%)\nTitle : Stereo / Stereo\nLanguage : English\n\n[img]http://i.imgur.com/96mWHPy.jpg[/img]","torrent":{"xt":"urn:btih:152766a29964d3657883f8005654b405c1ec7831","amp;dn":"Hot+Tub+Time+Machine+2+%282015%29+UNRATED+1080p+x264+%5BCBRG%5D","amp;tr":["udp%3A%2F%2Ftracker.openbittorrent.com%3A80","udp%3A%2F%2Fopen.demonii.com%3A1337","udp%3A%2F%2Ftracker.coppersurfer.tk%3A6969","udp%3A%2F%2Fexodus.desync.com%3A6969"],"infoHash":"152766a29964d3657883f8005654b405c1ec7831","infoHashBuffer":{"type":"Buffer","data":[21,39,102,162,153,100,211,101,120,131,248,0,86,84,180,5,193,236,120,49]},"announce":[],"urlList":[]}}